<?xml version="1.0" encoding="UTF-8" standalone="no"?>
<svg xmlns="http://www.w3.org/2000/svg"
     xmlns:xlink="http://www.w3.org/1999/xlink"
     width="576px" height="433px" viewBox="0 0 576 433">
<title>glps_renderer figure</title>
<desc>
Creator: GL2PS 1.3.9, (C) 1999-2015 C. Geuzaine
For: Octave
CreationDate: Sun Jul 17 02:16:38 2016
</desc>
<defs>
</defs>
<g shape-rendering="crispEdges">
<polygon fill="#ffffff" points="74.88,384.48 521.28,384.48 74.88,40"/>
<polygon fill="#ffffff" points="521.28,384.48 521.28,40 74.88,40"/>
<polyline fill="none" stroke="#000000" stroke-width="0.5" stroke-dasharray="16,0" points="74.88,384.48 521.28,384.48"/>
<polyline fill="none" stroke="#000000" stroke-width="0.5" stroke-dasharray="16,0" points="74.88,40 521.28,40"/>
<polyline fill="none" stroke="#000000" stroke-width="0.5" stroke-dasharray="16,0" points="74.88,384.48 74.88,40"/>
<polyline fill="none" stroke="#000000" stroke-width="0.5" stroke-dasharray="16,0" points="521.28,384.48 521.28,40"/>
<polyline fill="none" stroke="#000000" stroke-width="0.5" stroke-dasharray="16,0" points="74.88,384.48 74.88,380.01"/>
<polyline fill="none" stroke="#000000" stroke-width="0.5" stroke-dasharray="16,0" points="74.88,40 74.88,44.4702"/>
<polyline fill="none" stroke="#000000" stroke-width="0.5" stroke-dasharray="16,0" points="186.48,384.48 186.48,380.01"/>
<polyline fill="none" stroke="#000000" stroke-width="0.5" stroke-dasharray="16,0" points="186.48,40 186.48,44.4702"/>
<polyline fill="none" stroke="#000000" stroke-width="0.5" stroke-dasharray="16,0" points="298.08,384.48 298.08,380.01"/>
<polyline fill="none" stroke="#000000" stroke-width="0.5" stroke-dasharray="16,0" points="298.08,40 298.08,44.4702"/>
<polyline fill="none" stroke="#000000" stroke-width="0.5" stroke-dasharray="16,0" points="409.68,384.48 409.68,380.01"/>
<polyline fill="none" stroke="#000000" stroke-width="0.5" stroke-dasharray="16,0" points="409.68,40 409.68,44.4702"/>
<polyline fill="none" stroke="#000000" stroke-width="0.5" stroke-dasharray="16,0" points="521.28,384.48 521.28,380.01"/>
<polyline fill="none" stroke="#000000" stroke-width="0.5" stroke-dasharray="16,0" points="521.28,40 521.28,44.4702"/>
<text fill="#000000" x="74.88" y="389.487" font-size="10" text-anchor="middle" baseline-shift="-10" font-family="Helvetica">-2</text>
<text fill="#000000" x="186.48" y="389.487" font-size="10" text-anchor="middle" baseline-shift="-10" font-family="Helvetica">-1.5</text>
<text fill="#000000" x="298.08" y="389.487" font-size="10" text-anchor="middle" baseline-shift="-10" font-family="Helvetica">-1</text>
<text fill="#000000" x="409.68" y="389.487" font-size="10" text-anchor="middle" baseline-shift="-10" font-family="Helvetica">-0.5</text>
<text fill="#000000" x="521.28" y="389.487" font-size="10" text-anchor="middle" baseline-shift="-10" font-family="Helvetica">0</text>
<polyline fill="none" stroke="#000000" stroke-width="0.5" stroke-dasharray="16,0" points="74.88,384.48 79.348,384.48"/>
<polyline fill="none" stroke="#000000" stroke-width="0.5" stroke-dasharray="16,0" points="521.28,384.48 516.812,384.48"/>
<polyline fill="none" stroke="#000000" stroke-width="0.5" stroke-dasharray="16,0" points="74.88,335.269 79.348,335.269"/>
<polyline fill="none" stroke="#000000" stroke-width="0.5" stroke-dasharray="16,0" points="521.28,335.269 516.812,335.269"/>
<polyline fill="none" stroke="#000000" stroke-width="0.5" stroke-dasharray="16,0" points="74.88,286.057 79.348,286.057"/>
<polyline fill="none" stroke="#000000" stroke-width="0.5" stroke-dasharray="16,0" points="521.28,286.057 516.812,286.057"/>
<polyline fill="none" stroke="#000000" stroke-width="0.5" stroke-dasharray="16,0" points="74.88,236.846 79.348,236.846"/>
<polyline fill="none" stroke="#000000" stroke-width="0.5" stroke-dasharray="16,0" points="521.28,236.846 516.812,236.846"/>
<polyline fill="none" stroke="#000000" stroke-width="0.5" stroke-dasharray="16,0" points="74.88,187.634 79.348,187.634"/>
<polyline fill="none" stroke="#000000" stroke-width="0.5" stroke-dasharray="16,0" points="521.28,187.634 516.812,187.634"/>
<polyline fill="none" stroke="#000000" stroke-width="0.5" stroke-dasharray="16,0" points="74.88,138.423 79.348,138.423"/>
<polyline fill="none" stroke="#000000" stroke-width="0.5" stroke-dasharray="16,0" points="521.28,138.423 516.812,138.423"/>
<polyline fill="none" stroke="#000000" stroke-width="0.5" stroke-dasharray="16,0" points="74.88,89.2114 79.348,89.2114"/>
<polyline fill="none" stroke="#000000" stroke-width="0.5" stroke-dasharray="16,0" points="521.28,89.2114 516.812,89.2114"/>
<polyline fill="none" stroke="#000000" stroke-width="0.5" stroke-dasharray="16,0" points="74.88,40 79.348,40"/>
<polyline fill="none" stroke="#000000" stroke-width="0.5" stroke-dasharray="16,0" points="521.28,40 516.812,40"/>
<text fill="#000000" x="69.8755" y="384.48" font-size="10" text-anchor="end" baseline-shift="-5" font-family="Helvetica">-1.4</text>
<text fill="#000000" x="69.8755" y="335.269" font-size="10" text-anchor="end" baseline-shift="-5" font-family="Helvetica">-1.2</text>
<text fill="#000000" x="69.8755" y="286.057" font-size="10" text-anchor="end" baseline-shift="-5" font-family="Helvetica">-1</text>
<text fill="#000000" x="69.8755" y="236.846" font-size="10" text-anchor="end" baseline-shift="-5" font-family="Helvetica">-0.8</text>
<text fill="#000000" x="69.8755" y="187.634" font-size="10" text-anchor="end" baseline-shift="-5" font-family="Helvetica">-0.6</text>
<text fill="#000000" x="69.8755" y="138.423" font-size="10" text-anchor="end" baseline-shift="-5" font-family="Helvetica">-0.4</text>
<text fill="#000000" x="69.8755" y="89.2114" font-size="10" text-anchor="end" baseline-shift="-5" font-family="Helvetica">-0.2</text>
<text fill="#000000" x="69.8755" y="40" font-size="10" text-anchor="end" baseline-shift="-5" font-family="Helvetica">0</text>
<text fill="#000000" x="298.08" y="400.487" font-size="16" text-anchor="middle" baseline-shift="-16" font-family="Helvetica" font-weight="bold">\theta</text>
<text fill="#000000" x="46.8755" y="212.24" font-size="16" transform="rotate(-90, 46.8755, 212.24)" text-anchor="middle" baseline-shift="0" font-family="Helvetica" font-weight="bold">d\theta/dt</text>
<polyline fill="none" stroke="#0000ff" stroke-width="0.5" points="521.28,40 521.171,64.0748 520.844,87.9167 520.303,111.298 519.552,134.005 518.6,155.849 517.454,176.672 516.124,196.349 514.621,214.791 512.957,231.944 511.143,247.782 509.191,262.308 507.114,275.545 504.922,287.534 502.626,298.326 500.238,307.981 497.768,316.568 495.224,324.154 492.616,330.808 489.951,336.597 487.237,341.59 484.481,345.849 481.69,349.432 478.87,352.399 476.024,354.801 473.16,356.685 470.281,358.1 467.39,359.084 464.493,359.682 461.592,359.924 458.69,359.845 455.79,359.476 452.894,358.841 450.006,357.97 447.126,356.882 444.258,355.6 441.401,354.146 438.559,352.532 435.732,350.778 432.921,348.898 430.128,346.905 427.353,344.813 424.598,342.631 421.863,340.372 419.149,338.042 416.456,335.652 413.786,333.212 411.137,330.724 408.511,328.197 405.909,325.638 403.329,323.049 400.774,320.441 398.242,317.813 395.734,315.171 393.25,312.518 390.789,309.861 388.354,307.198 385.942,304.536 383.554,301.874 381.191,299.216 378.852,296.564 376.536,293.921 374.245,291.288 371.977,288.665 369.734,286.055 367.513,283.459 365.317,280.878 363.143,278.313 360.993,275.765 358.866,273.234 356.762,270.722 354.68,268.229 352.621,265.756 350.584,263.303 348.57,260.87 346.577,258.458 344.606,256.067 342.657,253.697 340.729,251.35 338.823,249.024 336.937,246.72 335.072,244.437 333.228,242.178 331.405,239.94 329.601,237.724 327.817,235.531 326.054,233.359 324.309,231.21 322.584,229.083 320.879,226.978 319.192,224.895 317.525,222.833 315.875,220.794 314.244,218.776 312.632,216.779 311.037,214.803 309.461,212.849 307.901,210.916 306.36,209.004 304.835,207.112 303.328,205.241 301.837,203.39 300.363,201.56 298.906,199.749 297.466,197.959 296.04,196.188 294.632,194.436 293.239,192.704 291.862,190.991 290.5,189.297 289.152,187.621 287.822,185.965 286.505,184.326 285.204,182.706 283.916,181.103 282.643,179.519 281.385,177.952 280.139,176.403 278.909,174.871 277.693,173.356 276.49,171.858 275.3,170.377 274.124,168.912 272.961,167.463 271.812,166.031 270.676,164.615 269.551,163.215 268.439,161.83 267.341,160.461 266.254,159.107 265.18,157.769 264.118,156.445 263.067,155.136 262.029,153.842 261.002,152.563 259.986,151.298 258.982,150.047 257.991,148.809 257.009,147.587 256.038,146.377 255.078,145.181 254.13,143.999 253.192,142.83 252.264,141.674 251.346,140.531 250.44,139.401 249.543,138.284 248.657,137.179 247.782,136.087 246.914,135.006 246.057,133.938 245.211,132.882 244.371,131.838 243.543,130.806 242.724,129.785 241.914,128.776 241.115,127.778 240.323,126.791 239.539,125.815 238.765,124.851 237.999,123.897 237.242,122.954 236.495,122.021 235.756,121.099 235.024,120.187 234.301,119.286 233.586,118.395 232.879,117.513 232.178,116.642 231.488,115.78 230.805,114.929 230.129,114.086 229.459,113.253 228.799,112.43 228.147,111.616 227.5,110.811 226.861,110.015 226.23,109.228 225.605,108.449 224.989,107.68 224.377,106.919 223.775,106.167 223.176,105.423 222.587,104.688 222.005,103.961 221.426,103.242 220.855,102.531 220.293,101.828 219.735,101.133 219.183,100.445 218.639,99.7661 218.098,99.0943 217.565,98.43 217.038,97.7733 216.518,97.1237 216.003,96.4817 215.494,95.8466 214.989,95.2189 214.492,94.5981 213.998,93.9844 213.512,93.3777 213.03,92.7775 212.554,92.1843 212.083,91.5977 211.619,91.0177 211.157,90.4442 210.702,89.8773 210.253,89.3165 209.809,88.7621 209.369,88.2142 208.934,87.6721 208.503,87.1362 208.079,86.6064 207.657,86.0826 207.242,85.5644 206.831,85.0523 206.425,84.546 206.023,84.0452 205.626,83.5502 205.233,83.0605 204.845,82.5765 204.461,82.0979 204.082,81.6248 203.704,81.1568 203.334,80.6942 202.968,80.2368 202.604,79.7845 202.245,79.3372 201.89,78.895 201.539,78.458 201.193,78.0257 200.85,77.5983 200.51,77.1755 200.176,76.7578 199.843,76.3446 199.515,75.9359 199.191,75.5321 198.872,75.1326 198.555,74.7376 198.24,74.3474 197.93,73.9611 197.624,73.5794 197.321,73.202 197.022,72.8287 196.727,72.4599 196.432,72.095 196.145,71.7343 195.857,71.3774 195.575,71.0246 195.294,70.676 195.017,70.3312 194.745,69.9902 194.475,69.6531 194.207,69.3199 193.942,68.9902 193.68,68.6644 193.422,68.3421 193.167,68.0237 192.913,67.7087 192.663,67.3972 192.417,67.0892 192.172,66.7848 191.931,66.4836 191.692,66.1859 191.455,65.8916 191.223,65.6005 190.991,65.3129 190.763,65.0282 190.538,64.7469 190.315,64.4688 190.094,64.1938 189.875,63.9218 189.658,63.653 189.446,63.3871 189.234,63.1242 189.027,62.8643 188.819,62.6073 188.616,62.3531 188.415,62.1019 188.214,61.8535 188.018,61.6078 187.824,61.365 187.629,61.1248 187.44,60.8873 187.252,60.6526 187.065,60.4204 186.882,60.1909 186.699,59.9639 186.518,59.7396 186.342,59.5177 186.165,59.2983 185.991,59.0814 185.819,58.8669 185.647,58.6548 185.48,58.4451 185.313,58.2378 185.15,58.0328 184.987,57.8301 184.826,57.6297 184.668,57.4315 184.509,57.2356 184.353,57.0419 184.201,56.8503 184.047,56.6609 183.898,56.4736 183.75,56.2885 183.603,56.1054 183.458,55.9243 183.313,55.7454 183.172,55.5684 183.032,55.3934 182.893,55.2204 182.755,55.0493 182.619,54.8801 182.485,54.7129 182.353,54.5475 182.221,54.384 182.092,54.2223 181.962,54.0624 181.835,53.9044 181.71,53.7481 181.587,53.5936 181.465,53.4407 181.342,53.2897 181.224,53.1403 181.105,52.9926 180.987,52.8466 180.871,52.7021 180.757,52.5594 180.643,52.4182 180.532,52.2786 180.42,52.1406 180.311,52.0042 180.204,51.8692 180.096,51.7358 179.989,51.6039 179.884,51.4734 179.782,51.3445 179.679,51.217 179.579,51.0909 179.478,50.9662 179.38,50.843 179.282,50.7211 179.186,50.6006 179.09,50.4814 178.994,50.3636 178.902,50.2471 178.809,50.132 178.717,50.0181 178.628,49.9055 178.539,49.7941 178.449,49.684 178.362,49.5752 178.275,49.4675 178.19,49.3611 178.106,49.2559 178.023,49.1519 177.94,49.049 177.858,48.9473 177.777,48.8467 177.697,48.7473 177.619,48.649 177.541,48.5518 177.463,48.4556 177.387,48.3606 177.311,48.2666 177.237,48.1737 177.164,48.0818 177.09,47.991 177.019,47.9012 176.947,47.8123 176.878,47.7245 176.807,47.6377 176.74,47.5519 176.67,47.467 176.603,47.3831 176.536,47.3 176.469,47.218 176.405,47.1369 176.34,47.0566 176.278,46.9773 176.215,46.8989 176.153,46.8214 176.09,46.7447 176.03,46.6689 175.969,46.5939 175.909,46.5198 175.851,46.4465 175.793,46.3741 175.735,46.3024 175.679,46.2316 175.624,46.1615 175.568,46.0923 175.512,46.0238 175.458,45.9561 175.405,45.8892 175.351,45.8229 175.298,45.7575 175.246,45.6928 175.195,45.6288 175.144,45.5655 175.095,45.5029 175.045,45.4411 174.996,45.3799 174.947,45.3195 174.898,45.2597 174.851,45.2006 174.804,45.1421 174.758,45.0843 174.713,45.0272 174.666,44.9706 174.621,44.9148 174.579,44.8595 174.534,44.8049 174.49,44.7509 174.447,44.6975 174.405,44.6447 174.365,44.5925 174.322,44.5409 174.282,44.4898 174.24,44.4394 174.202,44.3895 174.162,44.3401 174.121,44.2913 174.083,44.2431 174.046,44.1954 174.008,44.1483 173.97,44.1016 173.932,44.0555 173.896,44.0099 173.86,43.9649 173.825,43.9203 173.789,43.8763 173.753,43.8327 173.72,43.7896 173.686,43.747 173.65,43.7049 173.617,43.6632 173.586,43.6221 173.552,43.5814 173.521,43.5411 173.488,43.5013 173.456,43.4619 173.425,43.423 173.394,43.3846 173.365,43.3465 173.334,43.3089 173.304,43.2717 173.273,43.2349 173.244,43.1986 173.215,43.1626 173.188,43.1271 173.159,43.0919 173.133,43.0572 173.104,43.0228 173.077,42.9888 173.05,42.9552 173.023,42.922 172.996,42.8892 172.97,42.8567 172.945,42.8246 172.918,42.7928 172.894,42.7614 172.869,42.7304 172.845,42.6997 172.82,42.6694 172.796,42.6393 172.773,42.6097 172.749,42.5804 172.726,42.5513 172.702,42.5227 172.68,42.4943 172.657,42.4663 172.635,42.4386 172.613,42.4111 172.592,42.384 172.57,42.3572 172.548,42.3307 172.528,42.3046 172.508,42.2787 172.485,42.2531 172.465,42.2277 172.445,42.2027 172.425,42.1779 172.407,42.1534 172.387,42.1292 172.367,42.1053 172.349,42.0816 172.329,42.0582 172.311,42.0351 172.293,42.0122 172.276,41.9896 172.258,41.9673 172.24,41.9451 172.222,41.9233 172.204,41.9017 172.186,41.8803 172.171,41.8591 172.153,41.8383 172.137,41.8176 172.122,41.7972 172.104,41.777 172.088,41.757 172.072,41.7372 172.057,41.7177 172.041,41.6984 172.026,41.6793 172.01,41.6605 171.997,41.6418 171.981,41.6233 171.965,41.6051 171.952,41.587 171.939,41.5692 171.923,41.5516 171.91,41.5341 171.896,41.5168 171.883,41.4998 171.869,41.483 171.856,41.4663 171.843,41.4498 171.829,41.4335 171.816,41.4174 171.802,41.4015 171.791,41.3857 171.778,41.3701 171.764,41.3547 171.753,41.3395 171.742,41.3245 171.729,41.3096 171.718,41.2949 171.706,41.2803 171.693,41.2659 171.682,41.2517 171.671,41.2376 171.659,41.2237 171.648,41.21 171.637,41.1964 171.628,41.1829 171.617,41.1696 171.606,41.1565 171.595,41.1434 171.586,41.1306 171.575,41.1179 171.566,41.1053 171.555,41.0929 171.546,41.0806 171.537,41.0685 171.526,41.0565 171.517,41.0446 171.508,41.0328 171.499,41.0212 171.488,41.0098 171.479,40.9984 171.47,40.9872 171.461,40.9761 171.452,40.9651 171.443,40.9543 171.436,40.9435 171.427,40.9329 171.418,40.9225 171.41,40.9121 171.403,40.9018 171.394,40.8917 171.385,40.8817 171.378,40.8718 171.369,40.862 171.363,40.8523 171.354,40.8427 171.347,40.8333 171.34,40.8239 171.331,40.8146 171.325,40.8055 171.318,40.7964 171.309,40.7874 171.302,40.7786 171.296,40.7698 171.289,40.7612 171.282,40.7526 171.276,40.7442 171.269,40.7358 171.262,40.7275 171.256,40.7194 171.249,40.7113 171.242,40.7032 171.235,40.6954 171.231,40.6876 171.224,40.6798 171.218,40.6722 171.211,40.6646 171.206,40.6572 171.2,40.6498 171.193,40.6425 171.189,40.6353 171.182,40.6281 171.177,40.621 171.171,40.6141 171.166,40.6072 171.16,40.6003 171.155,40.5936 171.148,40.5869 171.144,40.5803 171.139,40.5738 171.133,40.5674 171.128,40.561 171.124,40.5547 171.119,40.5484 171.113,40.5423 171.108,40.5362 171.104,40.5302 171.099,40.5242 171.095,40.5183 171.09,40.5125 171.086,40.5067 171.079,40.501 171.075,40.4954 171.07,40.4898 171.066,40.4843 171.064,40.4789 171.059,40.4735 171.055,40.4682 171.05,40.4629 171.046,40.4577 171.041,40.4525 171.037,40.4474 171.032,40.4424 171.03,40.4375 171.026,40.4326 171.021,40.4277 171.017,40.4229 171.014,40.4181 171.01,40.4134 171.006,40.4088 171.003,40.4042 170.999,40.3997 170.994,40.3951 170.992,40.3907 170.988,40.3863 170.985,40.382 170.981,40.3777 170.979,40.3734 170.974,40.3692 170.972,40.3651 170.968,40.361 170.965,40.3569 170.961,40.3529 170.959,40.3489 170.954,40.345 170.952,40.3411 170.95,40.3373 170.945,40.3335 170.943,40.3298 170.941,40.326 170.936,40.3224 170.934,40.3188 170.932,40.3152 170.927,40.3116 170.925,40.3082 170.923,40.3047 170.921,40.3013 170.916,40.2979 170.914,40.2945 170.912,40.2912 170.91,40.288 170.907,40.2847 170.905,40.2815 170.901,40.2783 170.898,40.2752 170.896,40.2721 170.894,40.269 170.892,40.2661 170.889,40.2631 170.887,40.2601 170.885,40.2572 170.883,40.2543 170.881,40.2514 170.878,40.2486 170.876,40.2458 170.874,40.243 170.872,40.2403 170.869,40.2376 170.867,40.2349 170.865,40.2323 170.863,40.2297 170.86,40.2271 170.858,40.2245 170.856,40.222 170.854,40.2195 170.852,40.217 170.852,40.2146 170.849,40.2122 170.847,40.2098 170.845,40.2075 170.843,40.2051 170.84,40.2028 170.838,40.2006 170.838,40.1983 170.836,40.196 170.834,40.1938 170.831,40.1917 170.831,40.1895 170.829,40.1874 170.827,40.1853 170.825,40.1832 170.823,40.1812 170.823,40.1791 170.82,40.1771 170.818,40.1751 170.818,40.1732 170.816,40.1712 170.814,40.1693 170.814,40.1674 170.811,40.1655 170.809,40.1636 170.809,40.1618 170.807,40.16 170.805,40.1582 170.805,40.1564 170.802,40.1546 170.8,40.1529 170.8,40.1512 170.798,40.1495 170.798,40.1478 170.796,40.1461 170.793,40.1445 170.793,40.1429 170.791,40.1413 170.791,40.1397 170.789,40.1381 170.787,40.1366 170.787,40.135 170.785,40.1335 170.785,40.132 170.782,40.1305 170.782,40.129 170.78,40.1276 170.78,40.1262 170.778,40.1248 170.778,40.1234 170.776,40.1219 170.776,40.1206 170.773,40.1192 170.773,40.1179 170.771,40.1166 170.771,40.1152 170.769,40.114 170.769,40.1127 170.767,40.1114 170.767,40.1102 170.767,40.1089 170.764,40.1077 170.764,40.1065 170.762,40.1053 170.762,40.1041 170.76,40.103 170.76,40.1018 170.76,40.1006 170.758,40.0995 170.758,40.0984 170.756,40.0973 170.756,40.0962 170.756,40.0951 170.753,40.0941 170.753,40.093 170.751,40.0919 170.751,40.0909 170.751,40.0899 170.749,40.0889 170.749,40.0879 170.749,40.0869 170.747,40.0859 170.747,40.085 170.747,40.084 170.744,40.083 170.744,40.0821 170.744,40.0812 170.742,40.0803 170.742,40.0793 170.742,40.0785 170.74,40.0776 170.74,40.0767 170.74,40.0759 170.738,40.075 170.738,40.0742 170.738,40.0733 170.735,40.0725 170.735,40.0717 170.735,40.0709 170.735,40.0701 170.733,40.0693 170.733,40.0685 170.733,40.0677 170.731,40.067 170.731,40.0662 170.731,40.0655 170.731,40.0648 170.729,40.064 170.729,40.0633 170.729,40.0626 170.729,40.0619 170.727,40.0612 170.727,40.0605 170.727,40.0598 170.727,40.0591 170.724,40.0585 170.724,40.0579 170.724,40.0572 170.724,40.0565 170.722,40.0559 170.722,40.0553 170.722,40.0547 170.722,40.054 170.722,40.0534 170.72,40.0529 170.72,40.0522 170.72,40.0517 170.72,40.0511 170.72,40.0505 170.718,40.0499 170.718,40.0494 170.718,40.0488 170.718,40.0483 170.718,40.0477 170.715,40.0472 170.715,40.0467 170.715,40.0461 170.715,40.0456 170.715,40.0451 170.713,40.0446 170.713,40.0441 170.713,40.0436 170.713,40.0431 170.713,40.0426 170.713,40.0421 170.711,40.0417 170.711,40.0412 170.711,40.0407 170.711,40.0403 170.711,40.0398 170.711,40.0394 170.709,40.0389 170.709,40.0385 170.709,40.0381 170.709,40.0377 170.709,40.0372 170.709,40.0368 170.706,40.0364 170.706,40.036 170.706,40.0356 170.706,40.0352 170.706,40.0348 170.706,40.0344 170.706,40.034 170.704,40.0336 170.704,40.0333 170.704,40.0329 170.704,40.0325 170.704,40.0321 170.704,40.0318 170.704,40.0314 170.704,40.0311 170.702,40.0307 170.702,40.0304 170.702,40.03 170.702,40.0297 170.702,40.0294 170.702,40.029 170.702,40.0287 170.702,40.0284 170.7,40.0281 170.7,40.0278 170.7,40.0274 170.7,40.0271 170.7,40.0268 170.7,40.0265 170.7,40.0262 170.7,40.0259 170.7,40.0256 170.698,40.0253 170.698,40.0251 170.698,40.0248 170.698,40.0245 170.698,40.0242 170.698,40.024 170.698,40.0237 170.698,40.0234 170.698,40.0232 170.698,40.0229 170.698,40.0226 170.695,40.0224 170.695,40.0222 170.695,40.0219 170.695,40.0216 170.695,40.0214 170.695,40.0211 170.695,40.0209 170.695,40.0207 170.695,40.0204 170.695,40.0202 170.695,40.02 170.693,40.0198 170.693,40.0195 170.693,40.0193 170.693,40.0191 170.693,40.0189 170.693,40.0187 170.693,40.0185 170.693,40.0182 170.693,40.0181 170.693,40.0179 170.693,40.0176 170.693,40.0175 170.693,40.0173 170.693,40.0171 170.691,40.0169 170.691,40.0167 170.691,40.0165 170.691,40.0163 170.691,40.0161 170.691,40.0159 170.691,40.0157 170.691,40.0156 170.691,40.0154 170.691,40.0153 170.691,40.0151 170.691,40.0149 170.691,40.0147 170.691,40.0146 170.691,40.0144 170.689,40.0142 170.689,40.0141 170.689,40.0139 170.689,40.0138 170.689,40.0136 170.689,40.0135 170.689,40.0133 170.689,40.0132 170.689,40.013 170.689,40.0129 170.689,40.0127 170.689,40.0126 170.689,40.0125 170.689,40.0123 170.689,40.0121 170.689,40.012 170.689,40.0119 170.689,40.0117 170.689,40.0116 170.686,40.0115 170.686,40.0114 170.686,40.0112 170.686,40.0111 170.686,40.011 170.686,40.0109 170.686,40.0107 170.686,40.0106 170.686,40.0105 170.686,40.0104 170.686,40.0103 170.686,40.0101 170.686,40.01 170.686,40.0099 170.686,40.0098 170.686,40.0097 170.686,40.0096 170.686,40.0095 170.686,40.0094 170.686,40.0093 170.686,40.0092 170.686,40.0091 170.686,40.009 170.686,40.0089 170.686,40.0088 170.684,40.0087 170.684,40.0085 170.684,40.0085 170.684,40.0084 170.684,40.0083 170.684,40.0082 170.684,40.0081 170.684,40.008 170.684,40.0079 170.684,40.0078 170.684,40.0078 170.684,40.0077 170.684,40.0076 170.684,40.0075 170.684,40.0074 170.684,40.0073 170.684,40.0072 170.684,40.0071 170.684,40.0071 170.684,40.007 170.684,40.0069 170.684,40.0068 170.684,40.0068 170.684,40.0067 170.684,40.0066 170.684,40.0065 170.684,40.0065 170.684,40.0064 170.684,40.0063"/>
<text fill="#000000" x="298.08" y="30" font-size="18" text-anchor="middle" baseline-shift="0" font-family="Helvetica" font-weight="bold">{d^{2}\theta}/{d{t^{2}}} = -9.8 cos({\theta + {d\theta}/{dt}})</text>
</g>
</svg>
