<?xml version="1.0" encoding="UTF-8" standalone="no"?>
<svg xmlns="http://www.w3.org/2000/svg"
     xmlns:xlink="http://www.w3.org/1999/xlink"
     width="576px" height="433px" viewBox="0 0 576 433">
<title>glps_renderer figure</title>
<desc>
Creator: GL2PS 1.3.9, (C) 1999-2015 C. Geuzaine
For: Octave
CreationDate: Sun Jul 17 02:16:38 2016
</desc>
<defs>
</defs>
<g shape-rendering="crispEdges">
<polygon fill="#ffffff" points="74.88,384.48 521.28,384.48 74.88,40"/>
<polygon fill="#ffffff" points="521.28,384.48 521.28,40 74.88,40"/>
<polyline fill="none" stroke="#000000" stroke-width="0.5" stroke-dasharray="16,0" points="74.88,384.48 521.28,384.48"/>
<polyline fill="none" stroke="#000000" stroke-width="0.5" stroke-dasharray="16,0" points="74.88,40 521.28,40"/>
<polyline fill="none" stroke="#000000" stroke-width="0.5" stroke-dasharray="16,0" points="74.88,384.48 74.88,40"/>
<polyline fill="none" stroke="#000000" stroke-width="0.5" stroke-dasharray="16,0" points="521.28,384.48 521.28,40"/>
<polyline fill="none" stroke="#000000" stroke-width="0.5" stroke-dasharray="16,0" points="74.88,384.48 74.88,380.01"/>
<polyline fill="none" stroke="#000000" stroke-width="0.5" stroke-dasharray="16,0" points="74.88,40 74.88,44.4702"/>
<polyline fill="none" stroke="#000000" stroke-width="0.5" stroke-dasharray="16,0" points="164.16,384.48 164.16,380.01"/>
<polyline fill="none" stroke="#000000" stroke-width="0.5" stroke-dasharray="16,0" points="164.16,40 164.16,44.4702"/>
<polyline fill="none" stroke="#000000" stroke-width="0.5" stroke-dasharray="16,0" points="253.44,384.48 253.44,380.01"/>
<polyline fill="none" stroke="#000000" stroke-width="0.5" stroke-dasharray="16,0" points="253.44,40 253.44,44.4702"/>
<polyline fill="none" stroke="#000000" stroke-width="0.5" stroke-dasharray="16,0" points="342.72,384.48 342.72,380.01"/>
<polyline fill="none" stroke="#000000" stroke-width="0.5" stroke-dasharray="16,0" points="342.72,40 342.72,44.4702"/>
<polyline fill="none" stroke="#000000" stroke-width="0.5" stroke-dasharray="16,0" points="432,384.48 432,380.01"/>
<polyline fill="none" stroke="#000000" stroke-width="0.5" stroke-dasharray="16,0" points="432,40 432,44.4702"/>
<polyline fill="none" stroke="#000000" stroke-width="0.5" stroke-dasharray="16,0" points="521.28,384.48 521.28,380.01"/>
<polyline fill="none" stroke="#000000" stroke-width="0.5" stroke-dasharray="16,0" points="521.28,40 521.28,44.4702"/>
<text fill="#000000" x="74.88" y="389.487" font-size="10" text-anchor="middle" baseline-shift="-10" font-family="Helvetica">0</text>
<text fill="#000000" x="164.16" y="389.487" font-size="10" text-anchor="middle" baseline-shift="-10" font-family="Helvetica">2</text>
<text fill="#000000" x="253.44" y="389.487" font-size="10" text-anchor="middle" baseline-shift="-10" font-family="Helvetica">4</text>
<text fill="#000000" x="342.72" y="389.487" font-size="10" text-anchor="middle" baseline-shift="-10" font-family="Helvetica">6</text>
<text fill="#000000" x="432" y="389.487" font-size="10" text-anchor="middle" baseline-shift="-10" font-family="Helvetica">8</text>
<text fill="#000000" x="521.28" y="389.487" font-size="10" text-anchor="middle" baseline-shift="-10" font-family="Helvetica">10</text>
<polyline fill="none" stroke="#000000" stroke-width="0.5" stroke-dasharray="16,0" points="74.88,384.48 79.348,384.48"/>
<polyline fill="none" stroke="#000000" stroke-width="0.5" stroke-dasharray="16,0" points="521.28,384.48 516.812,384.48"/>
<polyline fill="none" stroke="#000000" stroke-width="0.5" stroke-dasharray="16,0" points="74.88,298.36 79.348,298.36"/>
<polyline fill="none" stroke="#000000" stroke-width="0.5" stroke-dasharray="16,0" points="521.28,298.36 516.812,298.36"/>
<polyline fill="none" stroke="#000000" stroke-width="0.5" stroke-dasharray="16,0" points="74.88,212.24 79.348,212.24"/>
<polyline fill="none" stroke="#000000" stroke-width="0.5" stroke-dasharray="16,0" points="521.28,212.24 516.812,212.24"/>
<polyline fill="none" stroke="#000000" stroke-width="0.5" stroke-dasharray="16,0" points="74.88,126.12 79.348,126.12"/>
<polyline fill="none" stroke="#000000" stroke-width="0.5" stroke-dasharray="16,0" points="521.28,126.12 516.812,126.12"/>
<polyline fill="none" stroke="#000000" stroke-width="0.5" stroke-dasharray="16,0" points="74.88,40 79.348,40"/>
<polyline fill="none" stroke="#000000" stroke-width="0.5" stroke-dasharray="16,0" points="521.28,40 516.812,40"/>
<text fill="#000000" x="69.8755" y="384.48" font-size="10" text-anchor="end" baseline-shift="-5" font-family="Helvetica">-2</text>
<text fill="#000000" x="69.8755" y="298.36" font-size="10" text-anchor="end" baseline-shift="-5" font-family="Helvetica">-1.5</text>
<text fill="#000000" x="69.8755" y="212.24" font-size="10" text-anchor="end" baseline-shift="-5" font-family="Helvetica">-1</text>
<text fill="#000000" x="69.8755" y="126.12" font-size="10" text-anchor="end" baseline-shift="-5" font-family="Helvetica">-0.5</text>
<text fill="#000000" x="69.8755" y="40" font-size="10" text-anchor="end" baseline-shift="-5" font-family="Helvetica">0</text>
<text fill="#000000" x="298.08" y="400.487" font-size="16" text-anchor="middle" baseline-shift="-16" font-family="Helvetica" font-weight="bold">t</text>
<text fill="#000000" x="46.8755" y="212.24" font-size="16" transform="rotate(-90, 46.8755, 212.24)" text-anchor="middle" baseline-shift="0" font-family="Helvetica" font-weight="bold">\theta</text>
<polyline fill="none" stroke="#0000ff" stroke-width="0.5" points="74.88,40 75.3264,40.0844 75.7728,40.3365 76.2192,40.7541 76.6656,41.3331 77.112,42.0681 77.5584,42.9526 78.0048,43.9789 78.4512,45.1386 78.8976,46.4229 79.344,47.8228 79.7904,49.3288 80.2368,50.9321 80.6832,52.6235 81.1296,54.3947 81.576,56.2375 82.0224,58.1439 82.4688,60.1071 82.9152,62.1199 83.3616,64.1763 83.808,66.2704 84.2544,68.3969 84.7008,70.5507 85.1472,72.7275 85.5936,74.923 86.04,77.1336 86.4864,79.3555 86.9328,81.586 87.3792,83.8218 87.8256,86.0606 88.272,88.3 88.7184,90.5378 89.1648,92.7721 89.6112,95.0011 90.0576,97.2231 90.504,99.437 90.9504,101.641 91.3968,103.835 91.8432,106.016 92.2896,108.185 92.736,110.341 93.1824,112.482 93.6288,114.608 94.0752,116.718 94.5216,118.813 94.968,120.891 95.4144,122.952 95.8608,124.996 96.3072,127.022 96.7536,129.03 97.2,131.021 97.6464,132.993 98.0928,134.947 98.5392,136.882 98.9856,138.799 99.432,140.698 99.8784,142.577 100.325,144.438 100.771,146.281 101.218,148.105 101.664,149.91 102.11,151.696 102.557,153.465 103.003,155.214 103.45,156.946 103.896,158.659 104.342,160.354 104.789,162.032 105.235,163.691 105.682,165.332 106.128,166.956 106.574,168.563 107.021,170.151 107.467,171.723 107.914,173.278 108.36,174.815 108.806,176.336 109.253,177.84 109.699,179.328 110.146,180.799 110.592,182.254 111.038,183.693 111.485,185.117 111.931,186.524 112.378,187.916 112.824,189.292 113.27,190.653 113.717,191.999 114.163,193.33 114.61,194.646 115.056,195.948 115.502,197.235 115.949,198.508 116.395,199.766 116.842,201.011 117.288,202.241 117.734,203.458 118.181,204.661 118.627,205.851 119.074,207.027 119.52,208.19 119.966,209.341 120.413,210.478 120.859,211.603 121.306,212.714 121.752,213.814 122.198,214.901 122.645,215.976 123.091,217.039 123.538,218.089 123.984,219.13 124.43,220.156 124.877,221.172 125.323,222.177 125.77,223.17 126.216,224.152 126.662,225.124 127.109,226.085 127.555,227.034 128.002,227.972 128.448,228.901 128.894,229.819 129.341,230.727 129.787,231.624 130.234,232.511 130.68,233.388 131.126,234.256 131.573,235.113 132.019,235.961 132.466,236.8 132.912,237.628 133.358,238.448 133.805,239.259 134.251,240.06 134.698,240.853 135.144,241.636 135.59,242.411 136.037,243.176 136.483,243.934 136.93,244.683 137.376,245.424 137.822,246.156 138.269,246.879 138.715,247.596 139.162,248.304 139.608,249.003 140.054,249.695 140.501,250.379 140.947,251.054 141.394,251.724 141.84,252.386 142.286,253.039 142.733,253.686 143.179,254.325 143.626,254.957 144.072,255.582 144.518,256.199 144.965,256.811 145.411,257.415 145.858,258.013 146.304,258.604 146.75,259.187 147.197,259.764 147.643,260.335 148.09,260.9 148.536,261.458 148.982,262.009 149.429,262.555 149.875,263.096 150.322,263.628 150.768,264.155 151.214,264.677 151.661,265.193 152.107,265.703 152.554,266.206 153,266.706 153.446,267.198 153.893,267.686 154.339,268.168 154.786,268.643 155.232,269.115 155.678,269.58 156.125,270.042 156.571,270.497 157.018,270.946 157.464,271.392 157.91,271.833 158.357,272.267 158.803,272.698 159.25,273.123 159.696,273.544 160.142,273.961 160.589,274.372 161.035,274.779 161.482,275.18 161.928,275.578 162.374,275.971 162.821,276.36 163.267,276.744 163.714,277.125 164.16,277.5 164.606,277.872 165.053,278.239 165.499,278.602 165.946,278.961 166.392,279.317 166.838,279.669 167.285,280.015 167.731,280.357 168.178,280.697 168.624,281.033 169.07,281.365 169.517,281.692 169.963,282.018 170.41,282.338 170.856,282.655 171.302,282.969 171.749,283.279 172.195,283.585 172.642,283.888 173.088,284.188 173.534,284.484 173.981,284.777 174.427,285.068 174.874,285.354 175.32,285.637 175.766,285.917 176.213,286.195 176.659,286.469 177.106,286.739 177.552,287.006 177.998,287.271 178.445,287.533 178.891,287.791 179.338,288.048 179.784,288.301 180.23,288.551 180.677,288.797 181.123,289.042 181.57,289.285 182.016,289.524 182.462,289.76 182.909,289.994 183.355,290.225 183.802,290.452 184.248,290.68 184.694,290.902 185.141,291.124 185.587,291.341 186.034,291.558 186.48,291.772 186.926,291.982 187.373,292.19 187.819,292.397 188.266,292.602 188.712,292.804 189.158,293.003 189.605,293.2 190.051,293.396 190.498,293.589 190.944,293.778 191.39,293.968 191.837,294.154 192.283,294.338 192.73,294.521 193.176,294.7 193.622,294.879 194.069,295.055 194.515,295.229 194.962,295.401 195.408,295.571 195.854,295.74 196.301,295.907 196.747,296.071 197.194,296.235 197.64,296.395 198.086,296.555 198.533,296.712 198.979,296.867 199.426,297.022 199.872,297.173 200.318,297.323 200.765,297.473 201.211,297.619 201.658,297.764 202.104,297.909 202.55,298.05 202.997,298.191 203.443,298.331 203.89,298.467 204.336,298.603 204.782,298.737 205.229,298.87 205.675,299.002 206.122,299.132 206.568,299.261 207.014,299.387 207.461,299.512 207.907,299.636 208.354,299.759 208.8,299.881 209.246,300.001 209.693,300.119 210.139,300.237 210.586,300.353 211.032,300.466 211.478,300.58 211.925,300.692 212.371,300.804 212.818,300.913 213.264,301.021 213.71,301.128 214.157,301.235 214.603,301.34 215.05,301.443 215.496,301.545 215.942,301.646 216.389,301.746 216.835,301.846 217.282,301.944 217.728,302.041 218.174,302.135 218.621,302.23 219.067,302.325 219.514,302.416 219.96,302.508 220.406,302.599 220.853,302.688 221.299,302.776 221.746,302.864 222.192,302.95 222.638,303.036 223.085,303.121 223.531,303.203 223.978,303.286 224.424,303.369 224.87,303.45 225.317,303.529 225.763,303.608 226.21,303.686 226.656,303.763 227.102,303.839 227.549,303.915 227.995,303.989 228.442,304.063 228.888,304.137 229.334,304.208 229.781,304.28 230.227,304.351 230.674,304.419 231.12,304.488 231.566,304.557 232.013,304.624 232.459,304.692 232.906,304.757 233.352,304.822 233.798,304.886 234.245,304.95 234.691,305.014 235.138,305.076 235.584,305.138 236.03,305.198 236.477,305.258 236.923,305.319 237.37,305.377 237.816,305.436 238.262,305.492 238.709,305.549 239.155,305.606 239.602,305.661 240.048,305.716 240.494,305.77 240.941,305.825 241.387,305.877 241.834,305.93 242.28,305.982 242.726,306.033 243.173,306.085 243.619,306.135 244.066,306.185 244.512,306.233 244.958,306.281 245.405,306.33 245.851,306.378 246.298,306.424 246.744,306.471 247.19,306.517 247.637,306.562 248.083,306.607 248.53,306.652 248.976,306.695 249.422,306.738 249.869,306.781 250.315,306.824 250.762,306.865 251.208,306.907 251.654,306.948 252.101,306.989 252.547,307.029 252.994,307.068 253.44,307.108 253.886,307.146 254.333,307.184 254.779,307.222 255.226,307.26 255.672,307.298 256.118,307.334 256.565,307.37 257.011,307.406 257.458,307.44 257.904,307.477 258.35,307.511 258.797,307.544 259.243,307.578 259.69,307.613 260.136,307.645 260.582,307.678 261.029,307.709 261.475,307.742 261.922,307.773 262.368,307.806 262.814,307.835 263.261,307.866 263.707,307.897 264.154,307.926 264.6,307.956 265.046,307.985 265.493,308.014 265.939,308.043 266.386,308.071 266.832,308.098 267.278,308.126 267.725,308.154 268.171,308.181 268.618,308.207 269.064,308.233 269.51,308.26 269.957,308.286 270.403,308.31 270.85,308.336 271.296,308.36 271.742,308.386 272.189,308.41 272.635,308.434 273.082,308.458 273.528,308.481 273.974,308.505 274.421,308.527 274.867,308.551 275.314,308.574 275.76,308.596 276.206,308.617 276.653,308.639 277.099,308.66 277.546,308.682 277.992,308.703 278.438,308.724 278.885,308.744 279.331,308.765 279.778,308.786 280.224,308.805 280.67,308.825 281.117,308.844 281.563,308.863 282.01,308.882 282.456,308.901 282.902,308.92 283.349,308.937 283.795,308.956 284.242,308.973 284.688,308.992 285.134,309.01 285.581,309.027 286.027,309.044 286.474,309.061 286.92,309.077 287.366,309.094 287.813,309.111 288.259,309.127 288.706,309.142 289.152,309.159 289.598,309.175 290.045,309.19 290.491,309.206 290.938,309.22 291.384,309.235 291.83,309.251 292.277,309.265 292.723,309.28 293.17,309.294 293.616,309.308 294.062,309.321 294.509,309.335 294.955,309.349 295.402,309.363 295.848,309.376 296.294,309.39 296.741,309.402 297.187,309.416 297.634,309.428 298.08,309.44 298.526,309.454 298.973,309.466 299.419,309.478 299.866,309.49 300.312,309.502 300.758,309.514 301.205,309.526 301.651,309.537 302.098,309.549 302.544,309.561 302.99,309.571 303.437,309.581 303.883,309.594 304.33,309.604 304.776,309.614 305.222,309.625 305.669,309.635 306.115,309.645 306.562,309.656 307.008,309.666 307.454,309.676 307.901,309.687 308.347,309.695 308.794,309.705 309.24,309.716 309.686,309.724 310.133,309.733 310.579,309.743 311.026,309.752 311.472,309.761 311.918,309.771 312.365,309.78 312.811,309.788 313.258,309.797 313.704,309.805 314.15,309.814 314.597,309.821 315.043,309.829 315.49,309.838 315.936,309.847 316.382,309.854 316.829,309.862 317.275,309.869 317.722,309.878 318.168,309.885 318.614,309.891 319.061,309.9 319.507,309.907 319.954,309.914 320.4,309.921 320.846,309.929 321.293,309.936 321.739,309.943 322.186,309.95 322.632,309.957 323.078,309.964 323.525,309.969 323.971,309.976 324.418,309.983 324.864,309.99 325.31,309.995 325.757,310.002 326.203,310.009 326.65,310.014 327.096,310.021 327.542,310.026 327.989,310.033 328.435,310.038 328.882,310.043 329.328,310.05 329.774,310.055 330.221,310.06 330.667,310.067 331.114,310.072 331.56,310.078 332.006,310.083 332.453,310.088 332.899,310.093 333.346,310.098 333.792,310.103 334.238,310.108 334.685,310.114 335.131,310.119 335.578,310.124 336.024,310.127 336.47,310.133 336.917,310.138 337.363,310.143 337.81,310.146 338.256,310.152 338.702,310.157 339.149,310.16 339.595,310.165 340.042,310.169 340.488,310.174 340.934,310.177 341.381,310.183 341.827,310.186 342.274,310.191 342.72,310.195 343.166,310.198 343.613,310.203 344.059,310.207 344.506,310.21 344.952,310.214 345.398,310.219 345.845,310.222 346.291,310.226 346.738,310.229 347.184,310.233 347.63,310.236 348.077,310.239 348.523,310.245 348.97,310.248 349.416,310.251 349.862,310.255 350.309,310.257 350.755,310.26 351.202,310.264 351.648,310.267 352.094,310.27 352.541,310.274 352.987,310.277 353.434,310.281 353.88,310.282 354.326,310.286 354.773,310.289 355.219,310.293 355.666,310.295 356.112,310.298 356.558,310.301 357.005,310.303 357.451,310.307 357.898,310.31 358.344,310.312 358.79,310.315 359.237,310.317 359.683,310.32 360.13,310.322 360.576,310.326 361.022,310.327 361.469,310.331 361.915,310.332 362.362,310.336 362.808,310.338 363.254,310.341 363.701,310.343 364.147,310.344 364.594,310.348 365.04,310.35 365.486,310.351 365.933,310.355 366.379,310.357 366.826,310.358 367.272,310.362 367.718,310.363 368.165,310.365 368.611,310.367 369.058,310.37 369.504,310.372 369.95,310.374 370.397,310.375 370.843,310.377 371.29,310.379 371.736,310.382 372.182,310.384 372.629,310.386 373.075,310.388 373.522,310.389 373.968,310.391 374.414,310.393 374.861,310.394 375.307,310.396 375.754,310.398 376.2,310.4 376.646,310.401 377.093,310.403 377.539,310.405 377.986,310.406 378.432,310.408 378.878,310.41 379.325,310.412 379.771,310.413 380.218,310.415 380.664,310.417 381.11,310.419 381.557,310.42 382.003,310.42 382.45,310.422 382.896,310.424 383.342,310.425 383.789,310.427 384.235,310.429 384.682,310.431 385.128,310.431 385.574,310.432 386.021,310.434 386.467,310.436 386.914,310.436 387.36,310.437 387.806,310.439 388.253,310.441 388.699,310.443 389.146,310.443 389.592,310.444 390.038,310.446 390.485,310.446 390.931,310.448 391.378,310.45 391.824,310.45 392.27,310.451 392.717,310.453 393.163,310.453 393.61,310.455 394.056,310.456 394.502,310.456 394.949,310.458 395.395,310.46 395.842,310.46 396.288,310.462 396.734,310.462 397.181,310.463 397.627,310.465 398.074,310.465 398.52,310.467 398.966,310.467 399.413,310.468 399.859,310.47 400.306,310.47 400.752,310.472 401.198,310.472 401.645,310.474 402.091,310.474 402.538,310.475 402.984,310.475 403.43,310.477 403.877,310.477 404.323,310.479 404.77,310.479 405.216,310.481 405.662,310.481 406.109,310.482 406.555,310.482 407.002,310.484 407.448,310.484 407.894,310.486 408.341,310.486 408.787,310.486 409.234,310.487 409.68,310.487 410.126,310.489 410.573,310.489 411.019,310.491 411.466,310.491 411.912,310.491 412.358,310.493 412.805,310.493 413.251,310.494 413.698,310.494 414.144,310.494 414.59,310.496 415.037,310.496 415.483,310.498 415.93,310.498 416.376,310.498 416.822,310.5 417.269,310.5 417.715,310.5 418.162,310.501 418.608,310.501 419.054,310.501 419.501,310.503 419.947,310.503 420.394,310.503 420.84,310.505 421.286,310.505 421.733,310.505 422.179,310.506 422.626,310.506 423.072,310.506 423.518,310.508 423.965,310.508 424.411,310.508 424.858,310.51 425.304,310.51 425.75,310.51 426.197,310.51 426.643,310.512 427.09,310.512 427.536,310.512 427.982,310.513 428.429,310.513 428.875,310.513 429.322,310.513 429.768,310.515 430.214,310.515 430.661,310.515 431.107,310.515 431.554,310.517 432,310.517 432.446,310.517 432.893,310.517 433.339,310.518 433.786,310.518 434.232,310.518 434.678,310.518 435.125,310.52 435.571,310.52 436.018,310.52 436.464,310.52 436.91,310.52 437.357,310.522 437.803,310.522 438.25,310.522 438.696,310.522 439.142,310.522 439.589,310.524 440.035,310.524 440.482,310.524 440.928,310.524 441.374,310.524 441.821,310.525 442.267,310.525 442.714,310.525 443.16,310.525 443.606,310.525 444.053,310.527 444.499,310.527 444.946,310.527 445.392,310.527 445.838,310.527 446.285,310.527 446.731,310.529 447.178,310.529 447.624,310.529 448.07,310.529 448.517,310.529 448.963,310.529 449.41,310.53 449.856,310.53 450.302,310.53 450.749,310.53 451.195,310.53 451.642,310.53 452.088,310.532 452.534,310.532 452.981,310.532 453.427,310.532 453.874,310.532 454.32,310.532 454.766,310.532 455.213,310.534 455.659,310.534 456.106,310.534 456.552,310.534 456.998,310.534 457.445,310.534 457.891,310.534 458.338,310.534 458.784,310.536 459.23,310.536 459.677,310.536 460.123,310.536 460.57,310.536 461.016,310.536 461.462,310.536 461.909,310.536 462.355,310.537 462.802,310.537 463.248,310.537 463.694,310.537 464.141,310.537 464.587,310.537 465.034,310.537 465.48,310.537 465.926,310.537 466.373,310.539 466.819,310.539 467.266,310.539 467.712,310.539 468.158,310.539 468.605,310.539 469.051,310.539 469.498,310.539 469.944,310.539 470.39,310.539 470.837,310.539 471.283,310.541 471.73,310.541 472.176,310.541 472.622,310.541 473.069,310.541 473.515,310.541 473.962,310.541 474.408,310.541 474.854,310.541 475.301,310.541 475.747,310.541 476.194,310.543 476.64,310.543 477.086,310.543 477.533,310.543 477.979,310.543 478.426,310.543 478.872,310.543 479.318,310.543 479.765,310.543 480.211,310.543 480.658,310.543 481.104,310.543 481.55,310.543 481.997,310.543 482.443,310.544 482.89,310.544 483.336,310.544 483.782,310.544 484.229,310.544 484.675,310.544 485.122,310.544 485.568,310.544 486.014,310.544 486.461,310.544 486.907,310.544 487.354,310.544 487.8,310.544 488.246,310.544 488.693,310.544 489.139,310.546 489.586,310.546 490.032,310.546 490.478,310.546 490.925,310.546 491.371,310.546 491.818,310.546 492.264,310.546 492.71,310.546 493.157,310.546 493.603,310.546 494.05,310.546 494.496,310.546 494.942,310.546 495.389,310.546 495.835,310.546 496.282,310.546 496.728,310.546 497.174,310.546 497.621,310.548 498.067,310.548 498.514,310.548 498.96,310.548 499.406,310.548 499.853,310.548 500.299,310.548 500.746,310.548 501.192,310.548 501.638,310.548 502.085,310.548 502.531,310.548 502.978,310.548 503.424,310.548 503.87,310.548 504.317,310.548 504.763,310.548 505.21,310.548 505.656,310.548 506.102,310.548 506.549,310.548 506.995,310.548 507.442,310.548 507.888,310.548 508.334,310.548 508.781,310.549 509.227,310.549 509.674,310.549 510.12,310.549 510.566,310.549 511.013,310.549 511.459,310.549 511.906,310.549 512.352,310.549 512.798,310.549 513.245,310.549 513.691,310.549 514.138,310.549 514.584,310.549 515.03,310.549 515.477,310.549 515.923,310.549 516.37,310.549 516.816,310.549 517.262,310.549 517.709,310.549 518.155,310.549 518.602,310.549 519.048,310.549 519.494,310.549 519.941,310.549 520.387,310.549 520.834,310.549 521.28,310.549"/>
<text fill="#000000" x="298.08" y="30" font-size="18" text-anchor="middle" baseline-shift="0" font-family="Helvetica" font-weight="bold">{d^{2}\theta}/{d{t^{2}}} = -9.8 cos({\theta + {d\theta}/{dt}})</text>
</g>
</svg>
